<svg xmlns="http://www.w3.org/2000/svg" version="1.1" xmlns:xlink="http://www.w3.org/1999/xlink" xmlns:svgjs="http://svgjs.dev/svgjs" viewBox="0 0 800 800" opacity="0.48"><defs><linearGradient x1="50%" y1="0%" x2="50%" y2="100%" id="cccoil-grad"><stop stop-color="#ff00ff" stop-opacity="1" offset="0%"></stop><stop stop-color="#00ffff" stop-opacity="1" offset="100%"></stop></linearGradient></defs><g stroke="url(#cccoil-grad)" fill="none" stroke-linecap="round"><circle r="385" cx="400" cy="400" stroke-width="1.5" stroke-dasharray="2419 2419" transform="rotate(360, 400, 400)" opacity="0.92"></circle><circle r="378" cx="400" cy="400" stroke-width="1.5" stroke-dasharray="2331 2375" transform="rotate(353, 400, 400)" opacity="0.57"></circle><circle r="371" cx="400" cy="400" stroke-width="1.5" stroke-dasharray="2245 2331" transform="rotate(347, 400, 400)" opacity="0.49"></circle><circle r="364" cx="400" cy="400" stroke-width="1.5" stroke-dasharray="2160 2287" transform="rotate(340, 400, 400)" opacity="0.41"></circle><circle r="357" cx="400" cy="400" stroke-width="1.5" stroke-dasharray="2077 2243" transform="rotate(333, 400, 400)" opacity="0.98"></circle><circle r="350" cx="400" cy="400" stroke-width="1.5" stroke-dasharray="1995 2199" transform="rotate(327, 400, 400)" opacity="0.42"></circle><circle r="343" cx="400" cy="400" stroke-width="1.5" stroke-dasharray="1916 2155" transform="rotate(320, 400, 400)" opacity="0.97"></circle><circle r="336" cx="400" cy="400" stroke-width="1.5" stroke-dasharray="1837 2111" transform="rotate(313, 400, 400)" opacity="0.69"></circle><circle r="329" cx="400" cy="400" stroke-width="1.5" stroke-dasharray="1761 2067" transform="rotate(307, 400, 400)" opacity="0.21"></circle><circle r="322" cx="400" cy="400" stroke-width="1.5" stroke-dasharray="1686 2023" transform="rotate(300, 400, 400)" opacity="0.95"></circle><circle r="315" cx="400" cy="400" stroke-width="1.5" stroke-dasharray="1613 1979" transform="rotate(293, 400, 400)" opacity="0.53"></circle><circle r="308" cx="400" cy="400" stroke-width="1.5" stroke-dasharray="1541 1935" transform="rotate(287, 400, 400)" opacity="0.97"></circle><circle r="301" cx="400" cy="400" stroke-width="1.5" stroke-dasharray="1471 1891" transform="rotate(280, 400, 400)" opacity="0.83"></circle><circle r="294" cx="400" cy="400" stroke-width="1.5" stroke-dasharray="1403 1847" transform="rotate(273, 400, 400)" opacity="0.55"></circle><circle r="287" cx="400" cy="400" stroke-width="1.5" stroke-dasharray="1336 1803" transform="rotate(267, 400, 400)" opacity="0.22"></circle><circle r="280" cx="400" cy="400" stroke-width="1.5" stroke-dasharray="1271 1759" transform="rotate(260, 400, 400)" opacity="0.47"></circle><circle r="273" cx="400" cy="400" stroke-width="1.5" stroke-dasharray="1207 1715" transform="rotate(253, 400, 400)" opacity="0.59"></circle><circle r="266" cx="400" cy="400" stroke-width="1.5" stroke-dasharray="1145 1671" transform="rotate(247, 400, 400)" opacity="0.93"></circle><circle r="259" cx="400" cy="400" stroke-width="1.5" stroke-dasharray="1085 1627" transform="rotate(240, 400, 400)" opacity="0.92"></circle><circle r="252" cx="400" cy="400" stroke-width="1.5" stroke-dasharray="1026 1583" transform="rotate(233, 400, 400)" opacity="0.91"></circle><circle r="245" cx="400" cy="400" stroke-width="1.5" stroke-dasharray="969 1539" transform="rotate(227, 400, 400)" opacity="0.37"></circle><circle r="238" cx="400" cy="400" stroke-width="1.5" stroke-dasharray="914 1495" transform="rotate(220, 400, 400)" opacity="0.56"></circle><circle r="231" cx="400" cy="400" stroke-width="1.5" stroke-dasharray="860 1451" transform="rotate(213, 400, 400)" opacity="0.65"></circle><circle r="224" cx="400" cy="400" stroke-width="1.5" stroke-dasharray="808 1407" transform="rotate(207, 400, 400)" opacity="0.11"></circle><circle r="217" cx="400" cy="400" stroke-width="1.5" stroke-dasharray="757 1363" transform="rotate(200, 400, 400)" opacity="0.97"></circle><circle r="210" cx="400" cy="400" stroke-width="1.5" stroke-dasharray="709 1319" transform="rotate(193, 400, 400)" opacity="0.55"></circle><circle r="203" cx="400" cy="400" stroke-width="1.5" stroke-dasharray="661 1275" transform="rotate(187, 400, 400)" opacity="0.44"></circle><circle r="196" cx="400" cy="400" stroke-width="1.5" stroke-dasharray="616 1232" transform="rotate(180, 400, 400)" opacity="0.92"></circle><circle r="189" cx="400" cy="400" stroke-width="1.5" stroke-dasharray="572 1188" transform="rotate(173, 400, 400)" opacity="0.45"></circle><circle r="182" cx="400" cy="400" stroke-width="1.5" stroke-dasharray="529 1144" transform="rotate(167, 400, 400)" opacity="0.87"></circle><circle r="175" cx="400" cy="400" stroke-width="1.5" stroke-dasharray="489 1100" transform="rotate(160, 400, 400)" opacity="0.57"></circle><circle r="168" cx="400" cy="400" stroke-width="1.5" stroke-dasharray="450 1056" transform="rotate(153, 400, 400)" opacity="0.88"></circle><circle r="161" cx="400" cy="400" stroke-width="1.5" stroke-dasharray="412 1012" transform="rotate(147, 400, 400)" opacity="0.25"></circle><circle r="154" cx="400" cy="400" stroke-width="1.5" stroke-dasharray="376 968" transform="rotate(140, 400, 400)" opacity="0.21"></circle><circle r="147" cx="400" cy="400" stroke-width="1.5" stroke-dasharray="342 924" transform="rotate(133, 400, 400)" opacity="0.75"></circle><circle r="140" cx="400" cy="400" stroke-width="1.5" stroke-dasharray="310 880" transform="rotate(127, 400, 400)" opacity="0.16"></circle><circle r="133" cx="400" cy="400" stroke-width="1.5" stroke-dasharray="279 836" transform="rotate(120, 400, 400)" opacity="0.17"></circle><circle r="126" cx="400" cy="400" stroke-width="1.5" stroke-dasharray="249 792" transform="rotate(113, 400, 400)" opacity="0.88"></circle><circle r="119" cx="400" cy="400" stroke-width="1.5" stroke-dasharray="222 748" transform="rotate(107, 400, 400)" opacity="0.56"></circle><circle r="112" cx="400" cy="400" stroke-width="1.5" stroke-dasharray="195 704" transform="rotate(100, 400, 400)" opacity="0.91"></circle><circle r="105" cx="400" cy="400" stroke-width="1.5" stroke-dasharray="171 660" transform="rotate(93, 400, 400)" opacity="1.00"></circle><circle r="98" cx="400" cy="400" stroke-width="1.5" stroke-dasharray="148 616" transform="rotate(87, 400, 400)" opacity="0.73"></circle><circle r="91" cx="400" cy="400" stroke-width="1.5" stroke-dasharray="127 572" transform="rotate(80, 400, 400)" opacity="0.40"></circle><circle r="84" cx="400" cy="400" stroke-width="1.5" stroke-dasharray="108 528" transform="rotate(73, 400, 400)" opacity="0.68"></circle><circle r="77" cx="400" cy="400" stroke-width="1.5" stroke-dasharray="90 484" transform="rotate(67, 400, 400)" opacity="0.91"></circle><circle r="70" cx="400" cy="400" stroke-width="1.5" stroke-dasharray="73 440" transform="rotate(60, 400, 400)" opacity="0.90"></circle><circle r="63" cx="400" cy="400" stroke-width="1.5" stroke-dasharray="59 396" transform="rotate(53, 400, 400)" opacity="0.08"></circle><circle r="56" cx="400" cy="400" stroke-width="1.5" stroke-dasharray="46 352" transform="rotate(47, 400, 400)" opacity="0.59"></circle><circle r="49" cx="400" cy="400" stroke-width="1.5" stroke-dasharray="34 308" transform="rotate(40, 400, 400)" opacity="0.11"></circle><circle r="42" cx="400" cy="400" stroke-width="1.5" stroke-dasharray="24 264" transform="rotate(33, 400, 400)" opacity="0.77"></circle><circle r="35" cx="400" cy="400" stroke-width="1.5" stroke-dasharray="16 220" transform="rotate(27, 400, 400)" opacity="0.17"></circle><circle r="28" cx="400" cy="400" stroke-width="1.5" stroke-dasharray="10 176" transform="rotate(20, 400, 400)" opacity="0.77"></circle><circle r="21" cx="400" cy="400" stroke-width="1.5" stroke-dasharray="5 132" transform="rotate(13, 400, 400)" opacity="0.52"></circle><circle r="14" cx="400" cy="400" stroke-width="1.5" stroke-dasharray="2 88" transform="rotate(7, 400, 400)" opacity="0.34"></circle><circle r="7" cx="400" cy="400" stroke-width="1.5" stroke-dasharray="0 44" opacity="0.49"></circle></g></svg>