<svg xmlns="http://www.w3.org/2000/svg" version="1.1" xmlns:xlink="http://www.w3.org/1999/xlink" xmlns:svgjs="http://svgjs.dev/svgjs" viewBox="0 0 800 800" opacity="1"><defs><linearGradient x1="50%" y1="0%" x2="50%" y2="100%" id="nnneon-grad"><stop stop-color="#00ffff" stop-opacity="1" offset="0%"></stop><stop stop-color="#ff00ff" stop-opacity="1" offset="100%"></stop></linearGradient><filter id="nnneon-filter" x="-100%" y="-100%" width="400%" height="400%" filterUnits="objectBoundingBox" primitiveUnits="userSpaceOnUse" color-interpolation-filters="sRGB">
	<feGaussianBlur stdDeviation="35 24" x="0%" y="0%" width="100%" height="100%" in="SourceGraphic" edgeMode="none" result="blur"></feGaussianBlur></filter><filter id="nnneon-filter2" x="-100%" y="-100%" width="400%" height="400%" filterUnits="objectBoundingBox" primitiveUnits="userSpaceOnUse" color-interpolation-filters="sRGB">
	<feGaussianBlur stdDeviation="18 19" x="0%" y="0%" width="100%" height="100%" in="SourceGraphic" edgeMode="none" result="blur"></feGaussianBlur></filter></defs><g stroke-width="30.5" stroke="url(#nnneon-grad)" fill="none"><path d="M400 155.78118896484375L611.5000135147135 277.8906006350272V522.1094239753942L400 644.2188356455777L188.49998648528646 522.1094239753942V277.8906006350272L400 155.78118896484375Z " filter="url(#nnneon-filter)"></path><path d="M533 155.78118896484375L744.5000135147135 277.8906006350272V522.1094239753942L533 644.2188356455777L321.49998648528646 522.1094239753942V277.8906006350272L533 155.78118896484375Z " filter="url(#nnneon-filter2)" opacity="0.53"></path><path d="M267 155.78118896484375L478.5000135147135 277.8906006350272V522.1094239753942L267 644.2188356455777L55.499986485286456 522.1094239753942V277.8906006350272L267 155.78118896484375Z " filter="url(#nnneon-filter2)" opacity="0.53"></path><path d="M400 155.78118896484375L611.5000135147135 277.8906006350272V522.1094239753942L400 644.2188356455777L188.49998648528646 522.1094239753942V277.8906006350272L400 155.78118896484375Z "></path></g></svg>