<svg xmlns="http://www.w3.org/2000/svg" version="1.1" xmlns:xlink="http://www.w3.org/1999/xlink" xmlns:svgjs="http://svgjs.dev/svgjs" viewBox="0 0 800 800"><defs><linearGradient x1="50%" y1="0%" x2="50%" y2="100%" id="ssscribble-grad"><stop stop-color="hsl(30, 100%, 50%)" stop-opacity="1" offset="0%"></stop><stop stop-color="#00ff00" stop-opacity="1" offset="100%"></stop></linearGradient></defs><g fill="none" stroke-width="1.25" stroke="url(#ssscribble-grad)" stroke-linecap="round"><path d="M1220.81 391.74C1194.38 418.92 1164.56 444 1140.79 467.03 1130.76 490.14 1135.28 511.37 1151.08 531.01 1173.06 551.18 1191.36 570.48 1199.05 589.67 1193.56 610.66 1173.49 633.01 1142.69 657.77 1107.51 685.86 1073.81 717.41 1046.85 752.52 1030.42 789.94 1024.09 828.85 1025.51 867.01 1035.82 915.79 1031.04 962.55 1003.26 959.21 975 954.2 941.39 952.07 905.17 958.2 868.44 977.01 833.31 1007.68 801.12 1046.92 772.6 1087.97 747.83 1122.38 726.23 1142.44 708.04 1145.75 691.56 1133.41 675.75 1112.91 661.39 1097.15 646.27 1094.51 629.82 1110.54 613.49 1143.46 595.28 1182.48 575.13 1213.71 554.76 1226.44 532.5 1215.74 508.5 1187.37 484.4 1157.15 458.71 1139 431.53 1142.9 404.35 1168.66 376.31 1201.88 347.47 1225.96 318.52 1230.23 288.61 1210.5 257.71 1174.82 226.6 1137.69 194.45 1112 161.46 1105.1 128.6 1117.3 95.44 1138.67 62.7 1157.12 31.39 1163.85 1.94 1151.79 -24.49 1122.64 -47.53 1083.37 -66.09 1042.78 -79.46 1009.37 -91.83 985.3 -101.19 996.14 -110.41 998.53 -124.65 988.69 -145.8 967.66 -174.11 937.42 -208.32 900.75 -245.17 861.13 -280.49 821.99 -310.21 785.37 -330.22 753.26 -338.03 725.99 -335.32 703.69 -323.77 685.11 -308.52 668.76 -297.65 654.98 -295.27 641.16 -305.12 626.24 -328.16 611.64 -359.43 594.92 -391.9 575.91 -418.19 556.57 -430.71 534.99 -426.06 511.38 -407.66 487.61 -380.6 462.07 -354.17 434.89 -339.05 407.7 -338.86 379.52 -352.68 350.34 -376.41 321.01 -399.84 290.42 -414.55 258.49 -416.23 226.24 -401.81 192.6 -374.43 157.89 -340.78 123.49 -307.43 89.04 -280.82 55.7 -265.7 24.94 -261.94 -2.4 -266.92 -24.74 -282.68 -47.71 -280.06 -61.77 -248.27 -64.41 -216.67 -73.06 -180.6 -89.36 -143.6 -115.15 -108.55 -149.93 -77.65 -190.32 -51.89 -231.01 -24.46 -277.26 7.63 -284.39 20.92 -262.25 30.37 -257.35 42.57 -267.44 57.77 -294.09 74.63 -332.47 94.48 -371.53 116.82 -399.07 140.51 -407.51 165.95 -394.8 192.51 -368.16 219.71 -342.97 247.41 -331.24 275.16 -340.88 303.06 -370.35 330.71 -406.32 357.89 -432.08 385.07 -435.98 411.15 -415.07 436.19 -379.48 461.39 -345.73 485.87 -327.03 509.93 -329.27 534.63 -350.01 559.54 -376.05 585.17 -393.63 612.15 -394.32 640.58 -373.99 670.82 -338.29 702.73 -297.88 736.47 -263.39 771.65 -242.45 807.08 -238.26 842.24 -246.33 875.57 -259.08 905.59 -270.02 930.9 -270.41 949.94 -257.13 963.07 -231.17 969.49 -195.1 970.08 -154.47 968.7 -114.34 966.56 -79.32 967.06 -51.77 974.72 -32.86 990.28 -20.97 1014.59 -13.58 1046.74 -9.84 1082.84 -5.41 1117.96 1.79 1147.19 11.31 1165.58 25.7 1170.38 44.71 1163.7 67.06 1148.06 92.99 1129.75 121.31 1117.7 151.44 1116.26 182.5 1128.43 213.6 1153.63 245.22 1185.07 276.16 1214.17 306 1233.37 335.91 1235.93 364.55 1220.81 391.74Q1220.81 391.74 1220.81 391.74" opacity="0.17"></path><path d="M1189.31 358.06C1164.05 384.16 1135.26 409.02 1111.39 432.78 1099.62 456.76 1101.26 480.04 1114.14 503.09 1134.42 527 1153.42 551.52 1164.52 577.32 1164.6 604.89 1150.86 634.59 1125.44 666.72 1093.19 700.6 1058.98 736.34 1028.14 772.93 1005.11 808.36 991.17 841.53 985.77 870.14 990.8 900.31 998.26 914.62 984.3 908.91 965.68 909.9 940.18 918.26 909.67 936.94 875.97 966.6 840.93 1003.97 806.36 1043.63 773.2 1078.71 742.52 1102.53 714.59 1110.58 689.58 1104.45 666.99 1087.8 646.17 1069.21 627.41 1060.02 609.27 1065.78 591.05 1088.5 573.68 1123.81 555.41 1160.65 535.86 1186.72 516.51 1194.13 495.57 1180.28 472.94 1151.79 450.32 1123.44 425.97 1107.17 399.88 1111.4 373.78 1135.84 346.56 1167.71 318.35 1192.25 290.15 1199.49 261 1184.25 231.14 1152.22 201.48 1115.49 171.41 1086 141.43 1072.27 112.31 1077.22 84.1 1094.46 57.64 1114.15 33.24 1127.81 11.73 1126.35 -6.1 1107.96 -21.02 1076.18 -31.93 1037.09 -38.99 998.78 -46.54 958.52 -64.08 946.09 -84.83 954.02 -107.2 955.02 -135.51 947.42 -168.57 930.56 -204.04 905.64 -238.48 873.85 -267.98 838.06 -289.75 800.33 -301.1 763.34 -301.35 728.76 -293.79 697.12 -280.84 669.12 -267.72 644.32 -261.43 622.67 -264.67 602.94 -279.49 584.1 -305.31 566.78 -336.77 549 -367.13 530.12 -390.07 511.62 -399.39 491.44 -392.79 469.36 -374.08 447.31 -347.93 423.26 -322.67 397.17 -307.86 371.07 -306.7 343.55 -318.66 314.77 -340.57 286.02 -363.5 256.12 -379.78 225.4 -385.13 195.08 -375.62 164.51 -352.93 134.49 -322.22 105.98 -288.93 79.36 -259.24 55.79 -235.83 12.4 -250.47 -15.25 -232.48 -31.19 -209.4 -51.67 -179.4 -79.91 -145.29 -115.11 -109.72 -154.18 -75.15 -192.87 -43.49 -225.78 -15.99 -248.65 7.06 -258.42 26.11 -254.98 47.18 -236.93 79.97 -236.32 97.56 -279 110.16 -317.83 125.09 -352.06 142.34 -371.74 160.42 -372.73 180.63 -355.7 202.59 -329.05 225.1 -307.08 248.92 -299.52 273.7 -311.92 298.63 -341.63 324.23 -376.14 350.33 -400.58 376.42 -404.81 402.39 -385.9 428.29 -352.38 454.33 -318.73 480.6 -297.2 507.31 -294.55 534.56 -310.54 562.69 -334.92 591.95 -355.5 622.05 -363.5 653.47 -352.26 686.09 -323.95 719.06 -286.23 752.49 -248.32 785.53 -218.91 816.96 -203.68 846.08 -202.22 871.48 -210.12 900.54 -226.77 924.57 -205.54 923.84 -160.22 923.93 -121.89 926.5 -82.88 934.23 -46.97 949.95 -16.55 973.21 7.17 1003.21 24.78 1037.67 36.39 1072.41 44.81 1102.71 52.23 1130.27 62.66 1115.21 99.61 1091.08 127.7 1083.11 149.25 1086.06 173.07 1101.48 198.37 1127.84 224.54 1158.45 251.34 1185.51 278.19 1202.64 305.26 1204.12 331.97 1189.31 358.06Q1189.31 358.06 1189.31 358.06" opacity="0.27"></path><path d="M1157.81 351.59C1133.72 376.6 1106 401.75 1082.18 427.13 1068.92 452.7 1067.83 478.87 1077.7 505.91 1095.81 533.6 1114.69 562.64 1128.24 593.21 1133.12 624.55 1125.54 657.3 1106.15 690.98 1078.35 724.14 1045.77 756.62 1013.3 786.95 961.67 844.61 957.42 864.36 953.9 867.18 944.57 878.69 928.44 898.99 906.32 928.29 879.55 964.28 849.12 1002.41 816.73 1036.8 783.41 1062.12 750.56 1074.14 719.05 1071.67 689.07 1059.33 661.13 1042.11 635.1 1028.33 610.93 1026.97 588.14 1040.65 566.21 1068.48 545.43 1104.42 524.76 1137.87 503.74 1158.44 483.19 1160.87 461.8 1144.43 439.32 1116.23 416.95 1089.82 393.29 1075.38 368.28 1079.9 343.27 1103.04 317.51 1133.5 291.17 1158.25 264.93 1168.11 238.33 1157.24 211.72 1129.28 185.57 1094.05 159.92 1062.1 135.32 1042.44 111.88 1039.9 90.26 1051.29 71.09 1069.38 46.62 1090.5 15.32 1048.52 6.58 994.11 0.43 957.86 -6.36 928.59 -15.37 909.08 -29.02 900.44 -47.23 899.72 -70.68 903.02 -99.35 908.02 -131.74 909.21 -165.8 904.07 -198.85 892.48 -227.79 873.05 -249.52 847.14 -262.82 816.35 -266.31 782.47 -260.8 747.59 -250.63 712.51 -238.43 678.98 -228.96 647.64 -227.9 618.29 -236.6 591.29 -255.6 566.18 -283.26 542.76 -314.08 520.32 -341.84 498.21 -361.36 476.87 -367.63 455.08 -359.32 432.43 -340.45 409.97 -315.26 386.29 -291.17 361.28 -276.69 336.27 -274.64 310.53 -284.8 284.28 -304.81 258.22 -326.92 232.01 -344.27 206.19 -352.76 181.13 -347.9 157.24 -330.15 135.29 -303.28 115.03 -271.45 97.61 -240.3 83.62 -206.69 67.26 -195.34 47.74 -206.26 37 -212.98 24.36 -214.01 6.56 -207.52 -17.62 -193.79 -48.25 -172.21 -83.78 -144.52 -121.56 -112.77 -157.64 -78.97 -188.13 -45.3 -209.03 -13.21 -219.04 16.02 -217.62 41.93 -207.41 64.09 -195.52 83.15 -186.78 99.88 -187.48 113.96 -202.3 127.21 -229.88 140.49 -265.73 159.63 -315.99 204.98 -325.85 232.19 -290.26 251.18 -271.95 271.87 -268.44 294.11 -283.25 316.43 -312.95 340.15 -345.94 365.15 -369.08 390.16 -373.6 415.88 -356.62 442.26 -325.27 468.73 -292.13 496.04 -268.33 524.21 -261.1 552.63 -272.02 582.02 -293.53 612.3 -315.35 642.64 -329.07 673.55 -326.47 704.5 -306.78 734.56 -274.67 763.58 -237.07 790.55 -202.43 825.29 -171.54 868.7 -178.21 876.39 -189.81 878.49 -189.58 879.03 -178.67 880.07 -157.4 885.15 -127.87 894.78 -92.69 910.59 -55.57 933.63 -19.23 962.5 13.56 995.26 41.58 1028.97 64.18 1059.69 81.98 1083.44 96.28 1099.9 111.9 1074.22 142.46 1053.69 162.33 1050.05 177.13 1057.13 194.41 1075.27 213.89 1102.28 234.01 1131.75 255.84 1156.7 278.98 1171.8 302.31 1172.29 326.58 1157.81 351.59Q1157.81 351.59 1157.81 351.59" opacity="0.15"></path><path d="M1126.31 376.52C1103.37 400.44 1076.78 425.49 1053.16 451.62 1038.64 477.83 1035.04 505.23 1041.87 533.76 1057.43 562.37 1075.44 592.01 1090.45 622.32 1099.21 652.12 1097.28 681.74 1084.14 710.25 1061.89 736.6 1032.79 760.2 1000.96 779.82 957.69 800.97 911.01 815.43 907.72 815.36 910.74 818.58 913.56 826.18 913.94 840.51 911.56 863.14 903.84 892.98 890.56 927.99 872.62 964.35 849.84 997.47 823.44 1022.37 794.41 1036.26 763.8 1037.42 732.75 1027.41 701.56 1012.68 671.22 998.36 642.1 991.5 613.98 998.29 587.23 1018.79 561.68 1049.89 537.1 1084.77 513.29 1113.86 489.94 1128.81 467.1 1126.69 444.27 1108.24 421.22 1080.69 398.3 1056.32 374.9 1043.64 350.98 1048.4 327.06 1070.26 303.18 1099.26 279.51 1123.98 255.96 1136.11 232.89 1129.4 210.62 1105.8 188.85 1073.01 168.34 1039.99 149.53 1015.61 123.8 1008.13 85.23 1049.09 72.1 1057.64 63.87 1047.08 56.35 1023.48 48.51 990.84 38.05 954.46 25.22 919.67 8.93 890.79 -12 870.68 -37.13 859.37 -66.1 855.12 -97.83 856.73 -130.51 859.56 -161.77 860.48 -189.34 858.72 -210.74 851.04 -224 837.12 -229.43 817.91 -226.73 793.44 -217.74 765.26 -207.25 734.35 -197.64 702.19 -192.93 670.03 -197.32 637.87 -210.97 606.94 -233.23 577.54 -261.73 549.03 -291.17 521.98 -315.96 496.12 -332.03 470.9 -335.46 446.38 -325.67 422.25 -306.78 398.32 -282.61 374.43 -259.68 350.51 -245.56 326.59 -242.7 303.2 -251.13 280.54 -269.17 258.07 -290.18 236.69 -308.12 216.79 -319.18 197.53 -318.57 180.27 -305.8 165.38 -283.42 151.38 -254.31 139.82 -223.28 130.54 -184.36 117.1 -155.16 86.68 -161.18 62.19 -168.58 39.25 -173.51 11.33 -173.52 -21.12 -168.22 -56.27 -155.65 -91.95 -136.34 -124.91 -111.71 -152.02 -82.74 -170.57 -51.35 -178.7 -18.97 -178.07 12.84 -169.92 42.98 -158.44 70.91 -150.71 96.21 -150.29 119.02 -161.06 139.18 -184.45 157.53 -216.93 174.75 -252.63 198.1 -294.25 245.31 -286.39 271.23 -252.03 288.84 -237.66 307.99 -237.98 328.71 -254.84 349.44 -284.29 371.76 -315.71 395.68 -337.57 419.6 -342.35 444.56 -327.25 470.42 -298.15 496.29 -265.86 523.06 -240.36 550.56 -229.01 577.95 -234.73 605.86 -252.39 633.93 -273.78 661.4 -291.38 688.39 -296.3 714.24 -285.56 738.48 -261.17 760.55 -227.36 779.67 -191.29 814.54 -139.54 835.04 -148.25 843.7 -139.53 855.75 -122.5 873.03 -97.26 895.98 -66.26 924.23 -31.78 955.79 3.45 988.1 37.19 1018.27 68.32 1042.96 95.64 1059.27 119.17 1065.43 147.24 1033.53 190.14 1017.88 210.17 1018.6 223.26 1029.42 237.93 1049.71 254.43 1076.88 271.01 1104.93 289.53 1127.7 309.91 1140.86 330.38 1140.43 352.59 1126.31 376.52Q1126.31 376.52 1126.31 376.52" opacity="0.12"></path><path d="M1094.81 416.67C1073.04 439.5 1047.6 463.49 1024.33 488.46 1008.79 513.36 1002.88 539.08 1006.73 565.27 1019.47 591.04 1035.95 616.75 1051.47 641.76 1063.06 665.48 1066.01 687.52 1058.9 707 1042.8 724.09 1018.63 737.75 989.52 747.52 959.12 755 930.34 759.28 905.71 761.3 881.14 766.03 867.02 796.33 868.46 830.36 869.44 860.93 867.34 895.05 861.22 929.53 851.65 960.53 837.35 984.36 818.85 997.86 797.09 1000.97 772.34 994 745.6 980.36 717.38 967.03 688.53 958.35 659.74 959.52 630.89 973.92 602.73 999.6 575.49 1032 548.66 1064.33 522.75 1088.35 497.7 1097.78 472.98 1091.67 448.87 1071.78 425.27 1045.2 401.78 1022.92 378.62 1011.92 355.79 1016.89 332.95 1037.49 310.99 1064.98 290.01 1089.44 269.12 1103.47 249.41 1100.65 231.07 1081.57 213.06 1052.01 196.67 1019.25 182.07 991.56 161.69 974.09 129.12 1004.47 114.98 1021.21 104.23 1020.79 92.59 1007.95 79.15 984.15 62.46 952.84 42.77 918.09 19.67 884.44 -6.86 855.52 -36.12 833.52 -67.02 818.86 -98 811.67 -127.28 809.28 -152.69 809.11 -179.41 809.88 -187.15 789.69 -173.79 765.18 -165.05 743.75 -159.48 719.06 -160.11 692.27 -169.75 663.8 -187.56 634.74 -212.03 605.86 -240.44 576.72 -267.82 548.42 -289.37 521.19 -302.04 494.13 -302.85 468.15 -291.83 443.28 -273.07 418.49 -249.95 394.65 -228.18 371.82 -214.44 348.99 -210.87 327.69 -217.64 308.01 -233.69 288.41 -253.35 270.56 -271.4 254.56 -284.43 238.72 -287.58 224.73 -279.62 212.44 -262.12 199.89 -236.73 188.4 -207.33 177.3 -178.33 164.51 -152.89 150.63 -133.47 134.56 -121.94 114.94 -117.34 91.83 -118.05 64.84 -123.16 34.48 -128.75 1.52 -132.27 -32.42 -133.07 -64.92 -128.3 -93.88 -117.51 -116.63 -101.5 -131.89 -80.07 -138.39 -54.51 -136.44 -26.07 -129.76 4.03 -120.42 34.5 -112.89 64.68 -112.86 93.59 -122.15 120.81 -142.09 146.26 -171.46 169.86 -205.54 191.88 -238.1 212.27 -263.09 231.7 -275.1 250.65 -271.94 268.66 -257.14 286.84 -235.29 305.54 -214.54 323.89 -204.27 343.15 -208.16 363.5 -226.7 383.79 -255.68 405.32 -285.48 428.15 -306.08 450.98 -311.06 474.58 -297.76 498.77 -270.96 522.89 -239.87 547.46 -213.25 572.17 -198.32 596.53 -198.93 620.65 -212.05 644.07 -231.49 666.55 -251.01 687.67 -261.82 706.85 -259.5 724.4 -243.93 739.39 -216.64 751.43 -182.94 765.45 -134.39 780.86 -88.1 787.03 -91.34 794.14 -98.86 804.07 -104.48 817.98 -105.12 837.12 -100.04 860.85 -87.06 888.61 -66.88 919.1 -40.96 950.1 -10.73 978.99 21.6 1003.47 54.78 1021 86.89 1029.84 116.91 1030.79 144.62 1023.95 169.56 1011.69 192.03 999.03 212.12 988.51 230.64 983.89 248.34 988.81 264.76 1002.86 281.35 1024.71 298.64 1051.57 315.51 1077.95 333.62 1098.52 353.2 1109.81 372.7 1108.55 393.83 1094.81 416.67Q1094.81 416.67 1094.81 416.67" opacity="0.77"></path><path d="M1063.31 446C1042.68 467.75 1018.44 489.79 995.66 511.92 979.34 533.9 971.4 555.68 972.39 576.85 982.15 597.41 996.55 616.77 1011.69 634.4 1028.43 657.85 1011.12 689.96 977.24 698.86 949.06 704.14 919.88 708.86 892.34 714.37 868.76 723.2 850.07 735.39 836.54 752.19 828.64 774.47 824.57 801.63 822.83 832.7 823.25 865.54 823.02 897.68 820.85 925.88 813.48 953.87 776.48 952.3 747.78 933.52 725.61 924.77 701.61 923.47 676.51 932.7 650.48 953.44 624.17 982.31 598.04 1014.11 571.72 1042.63 545.94 1061.18 520.89 1065.38 495.89 1055.88 471.65 1035.12 448.24 1009.82 424.87 989.64 402.27 980.25 380.53 985.39 358.78 1004.74 338.4 1030.69 319.42 1054.7 300.47 1070.24 282.97 1070.96 266.96 1056.41 251 1030.71 236.5 999.45 223.36 969.95 203.88 943.89 167.1 958.72 147.2 978.69 131.56 985.98 114.14 983.31 94.41 969.95 71.86 947.49 46.77 917.97 19.38 885.16 -9.56 852.5 -39.19 823.1 -68.11 798.92 -128.52 767.1 -143.51 751.24 -130.67 739.75 -125.36 728.37 -124.73 713.31 -130.79 695.17 -145.07 674.85 -166.05 652.43 -191.65 628.74 -219.06 603.97 -243.85 578.82 -262 553.83 -271.38 528.51 -269.84 503.79 -257.83 479.95 -239.34 456.05 -217.3 433.16 -196.68 411.41 -183.36 389.67 -179.14 369.58 -184.35 351.12 -198.39 332.6 -216.5 315.59 -234.24 299.89 -248.64 283.87 -254.96 268.74 -251.47 254.06 -238.97 238.3 -218.02 222.09 -191.54 204.73 -163.24 185.18 -136 163.49 -112.6 139.17 -95.34 112.29 -84.43 82.94 -79.33 51.73 -79.88 20.17 -83.15 -10.75 -86.94 -39.11 -90.88 -72.17 -72.83 -95.22 -48.48 -87.11 -26.98 -79.97 -2.21 -74.67 24.64 -74.85 52.9 -84.13 81.57 -102.52 109.9 -129.21 137.77 -161.25 164.52 -193.61 190.01 -220.61 214.44 -237.94 237.69 -242.25 259.98 -233.39 281.43 -216.17 302.35 -195.29 323.02 -177.98 343.27 -171.81 363.67 -178.93 384.4 -198.77 405.02 -227.07 426.19 -255.23 447.93 -274.58 469.68 -279.73 491.49 -268.14 513.23 -243.66 534.86 -214.06 556.19 -186.9 576.95 -169.01 597.29 -164.81 616.66 -172.97 634.66 -189.21 659.51 -216.1 697.65 -212.04 710.48 -174.39 717.87 -141.81 723.85 -109.53 729.11 -81.85 739.57 -56.18 774.68 -51.39 803.7 -58.24 828.32 -60.81 855.94 -58.1 885.32 -49.27 914.8 -34.95 942.28 -14.77 965.47 9.89 983.01 37.91 993.17 67.84 995.32 98.27 991.31 128.79 981.79 158.12 969.43 185.8 958.89 212.13 952.1 236.68 951.87 259.72 960.66 281.55 977.35 302.46 1000.15 322.92 1026.28 342.76 1050.79 362.72 1069.14 383.1 1078.65 403.32 1076.63 424.26 1063.31 446Q1063.31 446 1063.31 446" opacity="0.60"></path><path d="M1031.81 445.49C1012.32 466.15 989.31 485.98 967.13 504.85 945.43 532.38 951.57 580 971.5 599.06 990.27 615.46 987.79 640.04 962.5 650.92 938.43 660.16 911.23 671.04 883.33 684.63 856.96 702.2 833.58 723.58 814.17 748.92 799.63 777.5 789.31 808.24 782.41 839.3 774.87 902.13 751.67 904.6 733.27 889.83 718.14 887.83 700.61 894.45 681.23 910.81 660.54 936.03 638.69 966 616.18 995.47 593.06 1019.24 569.79 1032.2 546.71 1031.63 523.44 1019.42 500.61 998.33 478.43 974.56 456.21 956.5 434.7 948.62 414.05 953.89 393.39 972.02 374.06 996.41 356.04 1019.75 337.99 1036.43 321.17 1040.31 305.47 1030.16 289.59 1008.74 274.59 980.04 260.23 950.26 237.84 917.59 190.19 914.09 162.71 932.37 141.99 943.98 119.46 949.16 95.02 945.71 68.96 933.71 41.59 913.08 13.59 886.13 -13.99 855.55 -40.3 824.15 -63.98 794.52 -91.89 757.85 -114.28 715.54 -109.23 706.06 -99.25 700.95 -91.57 684.89 -104.97 670.33 -123.01 658.26 -146.03 643.67 -171.68 627 -197.31 609.18 -219.08 589.9 -233.76 569.69 -240.06 548.95 -236.44 527.8 -223.68 506.63 -205.59 485.32 -184.67 464.25 -165.18 443.59 -152.29 422.93 -147.51 403.17 -151.26 384.24 -163.32 365.18 -179.72 346.67 -196.75 328.46 -211.94 309.7 -220.77 290.7 -221.26 271.05 -213.62 250.24 -197.53 228.14 -174.97 204.4 -148.9 179.19 -121.7 152.22 -96.09 123.72 -74.53 94.69 -58 65.33 -46.84 36.81 -43.44 -24.1 -42.52 -46.52 -29.42 -37.52 -15.89 -34.96 1.51 -37.33 22.03 -46.84 44.91 -64.9 69.64 -90.1 95.39 -120.13 121.91 -151.37 148.45 -179.16 174.56 -198.97 200.45 -208.44 225.56 -205.95 249.78 -192.91 273.55 -174.79 296.53 -155.96 318.82 -142.51 340.81 -140.32 362.34 -150.28 383.5 -171.04 404.57 -198.47 425.43 -224.95 446.09 -243.08 466.75 -248.36 486.72 -238.39 505.89 -216.25 524.97 -188.39 543.09 -161.22 560.06 -141.03 584.38 -134.03 624.78 -173.76 640.48 -192.1 650.18 -193.32 658.55 -183.11 665.95 -162.68 674.12 -135.11 682.32 -103.86 691.29 -73.08 702.6 -46.31 715.95 -25.77 731.97 -12.22 751.39 -6.07 773.83 -5.13 799.02 -7.09 826.3 -11.08 854.52 -13.45 882.18 -12.47 907.76 -8.25 929.5 1.11 945.72 15.38 956.07 33.63 959.55 55.67 956.43 80.35 949.24 107.04 938.88 134.66 927.95 162.32 920.54 190.16 917.89 217.18 921.91 243.1 934.06 268.52 952.75 292.8 975.92 316.04 1000.92 338.88 1023.4 360.97 1039.55 382.46 1047.38 403.83 1044.7 424.83 1031.81 445.49Q1031.81 445.49 1031.81 445.49" opacity="0.47"></path><path d="M1000.31 415.47C981.95 435.04 960.18 453.13 938.74 469.73 916.01 493.82 914.59 534.36 931.31 551.17 950.53 567.52 960.25 600.5 943.93 620.44 925.27 636.85 902.03 655.77 876.18 677.6 849.69 702.24 824.06 729.37 800.68 758.21 780.69 787.28 764.28 815.35 751.36 840.52 722.8 866.85 686.75 864.37 667.36 893.13 652.62 920.66 636.22 949.67 618.55 975.39 600.15 993.84 580.92 1001.35 561.22 996.64 541.19 982.4 521.01 961.49 500.91 939.46 480.73 923.5 460.79 917.05 441.22 922.4 421.65 939.32 402.91 962.13 384.97 984.64 366.94 1002.08 349.56 1008.68 332.68 1002.7 315.47 985.79 298.44 960.52 281.33 931.87 263.5 905.28 245.14 884.64 225.96 872.44 205.64 870.03 184.15 875.26 161.34 885.1 137.4 897.32 112.29 906.94 86.33 911.05 60.21 908.81 34.26 898.38 9.37 880.52 -13.63 856.88 -33.92 829.15 -50.48 799.7 -63.22 770.39 -71.24 743.09 -74.35 718.93 -64.35 672.77 -62.3 635.4 -82.44 624.71 -103.11 617.04 -127 607.51 -151.7 596.1 -184.13 577.2 -205.37 530.65 -189.39 504.12 -171.83 485.98 -152.04 467.06 -133.68 447.49 -121.26 427.92 -116 408.16 -118.39 388.18 -128.5 368.08 -143.07 347.53 -159.06 326.39 -174.47 304.85 -185.15 282.4 -189 258.88 -185.87 234.79 -174.72 209.56 -156.75 183.32 -134.16 156.94 -108.69 130.16 -82.77 103.69 -58.76 78.59 -38.02 55.28 -21.52 34.87 -2.84 3.03 14.6 -5.45 33.03 -29.26 48.83 -53.74 67.26 -82.33 87.68 -112.01 109.61 -139.31 132.64 -160.49 156.2 -172.43 180.33 -174.58 204.41 -166.69 228.11 -151.15 251.87 -133.54 275.04 -117.61 297.52 -108.25 319.92 -109.82 341.64 -122.17 362.64 -143.48 383.6 -169.86 403.89 -194.66 423.47 -211.58 443.04 -216.94 461.42 -208.51 478.58 -188.68 495.71 -162.79 511.55 -136.11 526.07 -114.32 547.04 -101.13 582.48 -130.42 597.61 -151.74 607.96 -159.18 618 -157.19 628.21 -145.36 639.93 -125.29 652.69 -98.8 667.05 -69.21 683.86 -39.77 702.86 -13.23 724.24 8.46 747.9 23.99 773.36 33.71 799.9 38.67 826.53 39.15 852.12 37.95 875.24 36.89 902.32 37.05 921.79 58.04 914.35 79.9 905.89 98.24 896.37 119.04 888.13 141.46 884.5 165.22 886.09 189.58 894 213.94 908.9 238.66 928.92 262.87 951.88 286.29 975.42 309.7 995.76 332.23 1009.74 353.78 1016 375.3 1012.73 395.89 1000.31 415.46Q1000.31 415.47 1000.31 415.47" opacity="0.27"></path><path d="M968.81 375.39C951.58 393.87 931.08 411.07 910.49 427.04 887.1 450.54 878.6 493.22 891.53 513.63 903.97 528.02 915.54 542.81 924.08 558.49 928.94 575.75 927.87 594.56 920.57 615.26 907.92 637.84 889.99 662.33 868.17 688.45 844.06 715.27 818.88 742.34 794.09 768.46 770.86 792.31 749.92 812.79 731.71 828.52 697.37 838.19 668.17 816.5 659.35 820.88 652.99 833.75 645.07 853.47 635.51 878.46 625.37 906.06 613.58 932.33 600.3 953.24 586.5 966.15 571.44 968.62 555.37 960.47 539.02 944.91 521.91 924.63 504.23 904.52 486.47 890.62 468.3 885.49 449.82 890.89 431.34 906.63 412.98 927.85 394.73 949.36 376.4 967.21 358.04 976.07 339.53 973.9 320.74 961.55 301.55 940.33 281.82 914.04 261.56 887.25 240.53 863.6 218.64 846.08 196.16 836.84 172.84 835.31 148.85 839.9 124.72 849.36 100.46 859.61 76.58 867.75 53.75 872.59 32.4 871.26 13.31 863.2 -3.19 849.15 -16.34 829.31 -25.59 805.28 -31.6 778.56 -33.73 750.81 -32.33 723.57 -29.36 697.73 -24.77 674.29 -19.9 653.57 -17.32 628.17 -37.33 591.47 -62.74 576.86 -84.83 568.22 -108.43 559.01 -131.31 548.83 -159.09 533.19 -171.99 494.81 -154.97 471.95 -138.03 456.18 -119.41 439.05 -102.18 420.56 -90.25 402.08 -84.6 382.69 -85.74 362.45 -93.98 342.17 -106.66 320.98 -121.31 298.94 -136.43 276.84 -148.27 253.91 -154.78 230.36 -155.59 207 -149.19 183.38 -136.09 159.98 -117.86 137.59 -95.54 116.3 -71.12 96.89 -46.66 79.71 -23.6 65.46 -3.23 54.77 36.94 45.39 49.93 13.39 59.7 -20.32 68.86 -47.7 80.66 -75.87 94.76 -101.81 110.47 -122.89 127.96 -136.42 146.75 -140.74 166.51 -136.77 186.99 -125.16 207.8 -108.8 229.04 -92.94 250.23 -80.55 271.11 -75.32 292.12 -80.28 312.66 -94.58 332.57 -116.08 352.51 -141.25 371.77 -164.34 390.25 -180.08 408.73 -185.49 426 -178.5 442.07 -160.94 458.16 -137.17 473.1 -111.46 486.95 -88.76 507.46 -70.29 545.18 -87.18 563.62 -108.35 576.87 -119.79 590.62 -124.45 605.26 -120.83 621.5 -109.35 639.17 -90.2 658.5 -65.54 679.61 -37.89 702.35 -9.71 726.44 16.65 751.33 39.45 776.49 57.69 801.02 71.21 868.65 89.74 859.04 120.63 850.73 141.61 851.18 157.97 856.81 176 868.06 195.15 885 215.15 905.66 235.64 927.92 256.17 949.71 277.02 967.82 297.56 979.72 317.54 984.51 337.57 980.74 356.9 968.81 375.39Q968.81 375.39 968.81 375.39" opacity="0.58"></path><path d="M937.31 351.27C921.19 368.67 901.98 385.61 882.34 402.15 865.25 418.78 852.06 435.21 843.97 451.6 846.39 485.56 864.21 521.65 883.58 561.87 894.99 605.91 885.78 654.47 856.66 704.28 814.76 749.07 767.33 783.39 722.85 799.87 686.44 801.15 658.89 789.76 637.96 778.51 623.73 786.07 609.85 816.67 593.25 865.33 576.87 913.43 555.4 936.89 528.96 923.32 515.53 907.1 501 887.87 485.46 869.79 469.86 857.89 453.34 853.99 435.95 859.39 418.55 873.98 400.68 893.6 382.39 913.97 364.05 931.89 345.19 942.53 325.81 943.75 286.63 919.5 244.81 870.84 200.89 824.61 157.19 802.13 113.77 804.79 74.37 819.45 41.68 833.38 19.28 828.39 10.09 801.96 8.96 759.61 15.14 708.84 20.82 659.06 13.7 614.34 -8.28 577.44 -45.19 546.55 -90.06 521.2 -127.7 496.77 -143.54 470.34 -142.16 457.51 -134.09 443.68 -120.44 428.73 -104.24 413.82 -86.8 397.69 -70.68 380.3 -59.26 362.9 -53.31 344.65 -53.32 325.67 -59.78 306.73 -70.52 287.17 -83.62 267.2 -111.41 228.01 -123.69 189.14 -112.42 154.19 -81.25 124.78 -36.58 104.38 9.13 95.47 45.92 91.63 70.41 92.45 84.22 89.2 88.27 70.03 91.59 33.77 99.2 -16.37 109.72 -67.27 128.6 -101.13 154.54 -104.16 184.24 -83.44 218.17 -54.58 253.78 -43.76 271.94 -51.68 290.13 -67.44 308.16 -88.79 326.23 -112.61 344.03 -133.99 361.43 -148.58 378.82 -153.99 395.41 -148.34 411.22 -133 427.08 -111.48 442.28 -87.13 456.93 -64.19 486.93 -37.18 516.3 -40.84 546.9 -63.43 581.25 -86.6 619.68 -85.99 662.78 -57.33 708.8 -9.85 755.43 42.78 796.99 87.11 837.15 124.05 828.75 148.89 816.35 169.51 830.59 189.59 862.67 216.79 903.89 248.46 923.7 264.87 939.56 281.83 949.46 299.09 952.91 316.44 948.72 333.88 937.31 351.27Q937.31 351.27 937.31 351.27" opacity="0.36"></path><path d="M905.81 358.77C873.5 391.39 838.05 425.85 814.21 462.37 811.34 499.8 823.92 540.55 841.72 584.3 857.19 628.02 857.29 671.52 839.54 709.9 807.89 739.29 766.09 755.63 721.69 756.7 679.92 750.81 643.96 742.24 614.28 742.79 591.32 764.02 571.53 803.84 552.11 852.12 534.83 891.55 514.69 904.43 490.68 885.35 466.76 852.35 438.49 826.23 405.87 827.9 373.25 860.46 337.83 897.21 300.23 912.2 262.72 896.61 223.52 854.64 184.27 807.26 147.16 774.73 113.24 764.35 85.92 770.83 65.33 786.16 54.46 792.88 53.48 783.44 55.12 758.79 58.25 720.07 55.94 674.88 39.72 627.58 10.37 583.28 -29 543.81 -70.71 508.27 -101.86 476.14 -111.58 445.4 -100.33 416.02 -71.49 385.43 -39.18 352.81 -22.93 320.19 -26.82 287.08 -46.11 254.95 -72.63 224.17 -88.6 196.96 -85.36 175.97 -63.83 158.92 -26.28 149.49 17.58 146.51 58.72 141.43 91.87 133.33 115.41 115.23 128.44 81.92 136.7 36.52 144.68 -12.75 151.46 -53.2 163.44 -72.09 181.31 -63.47 201.5 -40 226.87 -16.59 255.79 -13.58 285.63 -41.15 317.37 -84.52 349.99 -117.08 382.61 -118.76 414.56 -86.04 446.24 -40.45 478.84 -8.77 512.81 -3.09 549.14 -18.6 587.8 -42.97 629.54 -53.54 673.03 -40.81 715.32 -7.4 753.9 39.83 783.62 88.48 802.84 130.16 808.36 160.65 801.19 181.54 791.29 193.44 782.99 203.65 785.36 216.46 806.03 229.24 840.56 247.83 879.67 271.92 911.55 296.91 922.06 326.14 905.81 358.76Q905.81 358.77 905.81 358.77" opacity="0.37"></path><path d="M874.31 393C844.36 423.44 810.56 457.2 785.38 493.63 777.79 529.95 784.81 568.27 799.4 606.51 816.22 641.77 823.03 672.56 815.51 694.74 795.3 708.65 762.71 711.71 723.39 705.98 681.92 701.83 642.09 702.92 606.26 717.41 575.17 749.72 548.03 793.69 523.21 837.17 501.22 866.38 478.74 869.64 454.36 846.75 430.54 815.86 403.59 793.72 373.14 796.4 342.7 826.2 310.21 861.08 276.61 879.28 243.57 871.77 210.67 837.89 179.9 792.8 140.46 742.8 100.1 741.22 99.73 748.43 99.15 740.62 95.64 718.46 84.15 685.82 59.97 646.46 25.86 604.36 -13.26 563.35 -50.18 523.06 -74.52 485.81 -78.68 451.54 -65.25 418.16 -37.62 386.37 -7.67 355.93 8.2 325.48 6.75 297.82 -8.92 273.79 -42.36 241.58 -28.24 204.27 24.68 192.7 65.71 178.41 103.77 156.86 135.2 124.77 157.92 82.81 174.32 36.41 187.37 -4.72 201.81 -33.91 245.82 11.17 279.04 15.2 303.13 -14.74 330.66 -55.79 361.1 -85.59 391.54 -88.27 423.46 -59.96 456.79 -17.32 490.64 17.3 526.7 31.37 564.77 24.48 603.25 3.32 642.63 -13.34 680.49 -13.95 714.36 3.25 741.68 38.26 758.87 82.31 767.34 127.94 765.37 168.59 756.05 201.6 749.17 226.35 747.75 245.7 757.91 263.2 783.57 277.71 818.99 294.77 855.13 315.87 882.57 336.86 890.19 362.54 874.31 392.99Q874.31 393 874.31 393" opacity="0.99"></path><path d="M842.81 431.75C815.22 460.03 783.31 490.45 757.44 521.91 745.86 552.57 747.35 582.53 757.58 609.35 778.56 640.86 763.97 661.11 722.44 657.21 686.52 661.64 648.27 675.43 610.9 702.2 575.36 740.92 542.79 783.73 512.97 819.03 485.5 837.57 459.19 832.72 433 807.73 407.5 779.65 380.79 761.36 352.52 764.89 324.24 791.99 295.76 824.65 267.94 845.03 240.82 844.7 215.7 819.61 194.18 779.73 168.01 723.19 145.62 692.52 143.32 701.2 136.92 704.1 125.15 696.65 105.14 678.93 75.29 653.82 39.36 622.08 2.94 587.49 -28 550.82 -45.58 514.79 -44.91 480.97 -29.95 447.17 -3.77 415.89 23.81 387.61 39.21 359.34 39.92 335.43 27.79 315.9 -3.16 288.71 -7.3 246.88 33.17 221.02 70 195.17 108.49 162.03 144.18 122.09 174.46 79.43 199.15 39.76 219.39 11.54 234.72 -1.04 249 4.95 264.26 25.09 278.32 44.25 295.44 53.26 316.17 42.69 336.93 11.39 361.46 -26.98 389.73 -54.08 418 -57.62 448.67 -33.61 481.23 5.37 513.81 41.27 548.12 62.22 583.05 64.4 616.79 49.83 649.07 32.37 677.31 23.08 700.63 25.74 716.53 45.47 723.3 78.09 724.67 118.25 719.7 160.42 712.3 199.78 710.9 234.89 716.96 264.69 733.87 290.56 762.82 312.73 797.65 334.2 830.15 356.85 853.19 378.7 858.21 403.48 842.81 431.75Q842.81 431.75 842.81 431.75" opacity="0.94"></path><path d="M811.3 449.92C786.04 476.02 756.24 501.56 730.32 525.62 724.59 580.12 740.04 611.73 713.91 619.24 687.07 635.09 655.13 660.41 621.18 694.9 586.38 734.46 552.52 771.5 520.59 796.6 489.8 805.09 460.73 794.01 433.09 768.54 405.97 743.79 379.39 729.17 353.29 733.41 327.2 757.86 302.82 788.01 280.73 809.59 259.16 815.27 240.76 798.98 226.32 766.41 213.03 727.61 203.91 691.52 198.5 665.02 189.46 650.12 155.79 655.42 119.65 649.36 87.09 638.21 52.27 619.7 20.56 596.03 -3.78 569.27 -14.99 540.36 -10.31 511.37 5.53 481.76 30.04 453.44 55.3 427.34 70.11 401.24 72.69 378.61 63.98 359 45.68 338.78 27.61 320.23 16.31 301.76 13.39 280.2 23.71 255.74 45.59 226.67 75.18 192.8 109.85 154.77 145.39 115.53 179.19 79.71 209.63 52.04 236.25 38.13 258.75 37.46 278.82 50.15 297.94 69.82 315.13 83.27 333.45 84.7 353.87 68.95 373.94 37.29 396.9 1.86 423 -22.58 449.09 -26.82 477.08 -6.91 506.23 27.9 535.02 63.43 564.17 89.37 592.21 100 629.76 87.22 676.05 63.5 679.97 84.67 678.63 112.58 674.9 147.58 672.49 184.9 677.77 222.69 690.85 258.08 712.89 290.16 743.32 319.88 776.24 347.23 804.61 373.25 823.4 398.41 826.12 423.82 811.3 449.91Q811.3 449.92 811.3 449.92" opacity="0.50"></path><path d="M779.9 435.57C757 459.49 729.49 480.54 704.07 498.35 687.35 536.75 707.03 573.6 694.66 597.19 678.09 622.88 655.27 655.2 628.49 691.37 599.18 726.57 568.68 754.64 538.58 769.05 508.34 768.98 479.32 753.78 451.99 729.28 424.85 708.22 399.17 697.02 375.25 701.78 351.33 723.64 330.3 751.06 312.33 772.91 294.54 783.27 280.05 775.19 268.83 751.12 257.48 717.77 248.58 681.57 241.03 649.46 230.94 626.07 219.42 611.78 204.63 604.6 184.14 604.17 158.8 604.5 129.26 602.38 97.09 599.32 65.93 590.86 40.31 577.28 22.75 561.43 17.3 541.74 25.15 519.69 41.34 496.9 64 473.13 86.9 449.21 100.97 425.29 105.03 402.35 99.44 380.03 84.68 356.97 68.38 333.14 55.78 307.53 48.16 279.67 50.93 248.74 63.99 214.92 84.77 180.18 112.49 145.51 143.82 114.58 176.43 90.41 208.39 76.33 238.27 74.81 265.81 82.01 290.96 96.75 314.29 112.57 335.84 119.11 356.98 113.59 378.51 93.99 399.55 62.91 421.91 30.65 445.83 8.79 469.76 4.01 494.1 20.06 518.17 50.35 541.76 84.09 564.13 112.9 584.04 130.51 621.6 116.91 634.19 132.1 638.64 171.62 650.49 203.53 669.17 236.7 694.32 268.93 724.45 300.95 754.37 330.95 778.36 358.68 793.18 385.99 793.97 411.65 779.9 435.57Q779.9 435.57 779.9 435.57" opacity="0.88"></path><path d="M748.39 398.2C727.79 419.94 702.72 438.28 678.39 453.33 654.12 474.63 649.56 507.95 658.98 526.37 665.6 543.54 667.61 564.88 663.95 591.19 656.36 621.87 642.87 655.06 624.74 687.1 603.69 714.16 579.93 731.85 555.01 736.48 529.11 729.95 503.32 712.75 478.54 690.43 453.63 673.23 430.05 665.15 408.3 670.29 386.55 689.64 367.67 714.15 351.57 735.43 335.35 749.05 321.58 748.02 309.78 732.64 297.02 707.03 284.97 674.88 272.51 642 257.11 612.78 239.39 589.53 218.47 572.68 193.63 562.77 165.84 556.59 136.57 551.55 94.76 546.1 51.5 519.58 61.19 496.95 77.13 480.32 97.79 460.94 118.39 439.2 131.67 417.45 136.97 394.37 134.26 369.98 123.16 345.19 109.46 318.45 97.11 289.81 86.86 260.61 83.99 229.96 89.36 199.32 101.23 170.84 120.41 145.8 144.68 127.2 172.04 115.55 201.15 113.01 230.19 119.59 258.84 129.82 286.13 142.47 311.75 152.15 336.34 151.58 359.76 140.24 382.29 118.24 404.43 88.57 426.37 59.65 448.11 40.3 469.86 35.15 490.38 47.63 509.25 73.22 527.73 103.94 543.87 133.51 556.97 155.99 580.63 159.9 597.69 152.85 611.77 174.13 629.04 194.85 651.41 219.42 677.61 245.63 705.89 273.23 731.98 300.52 751.46 326.36 762.57 352.33 761.67 376.45 748.39 398.2Q748.39 398.2 748.39 398.2" opacity="0.87"></path><path d="M716.89 361.91C698.55 381.49 676.04 398.95 653.29 414.57 634.42 430.62 620.23 445.68 611.45 460.62 609.36 477.32 611 495.52 614.37 516.2 619.93 539.9 623.52 566.63 623.77 595.68 622.22 625.25 616.09 653.58 605.75 677.33 593.11 694.5 577.15 702.25 558.97 699.13 539.61 688.57 519.17 671.32 498.56 652.08 477.67 638.75 457.18 633.45 437.61 638.8 418.03 655.72 400.31 677.24 384.29 697.2 367.99 712.64 352.83 717.14 338.27 709.78 322.53 692.88 306.25 667.75 288.73 638.56 268.9 608.82 246.94 581.17 222.84 557.43 196.94 538.54 170.15 523.76 144.2 511.83 110.86 499.13 84.97 472.12 97.81 453.24 113.01 439.76 131.55 423.25 149.89 403.68 162.27 384.11 168.48 362.39 168.26 338.97 160.73 315.59 150.14 290.69 139.34 265.11 128.45 240.4 122.22 216.38 121.9 194.81 126.17 176.57 136.94 163.26 153.04 156.5 172.72 154.59 195.63 159.03 220.13 168.4 245.66 177.21 271.23 184.79 295.97 187.34 320.55 180.35 344.05 164.71 366.21 141.72 388.21 114.2 409.11 88.72 428.69 71.8 448.26 66.45 465.57 75.72 480.48 96.6 495.23 123.39 507.34 151.78 516.67 176.69 537.3 200.14 569.74 192.03 592.07 199.18 612.76 208.67 636.55 222.69 661.78 239.91 686.93 258.89 708.66 279.44 723.74 300.3 731.51 321.59 729.27 342.34 716.89 361.91Q716.89 361.91 716.89 361.91" opacity="0.84"></path><path d="M685.3 350.35C669.18 367.75 649.32 385.07 628.56 402.4 610.11 420.11 594.57 438.53 582.88 458.04 575.26 500.28 577.32 550.02 578.32 601.82 573.33 656.71 524.01 637.91 500.63 614.51 484.37 604.88 467.35 601.99 449.95 607.4 432.56 621.99 415.6 640.46 399.06 658.52 382.25 674.43 365.35 682.73 348.07 681.98 310.9 657.59 268.5 608.64 221.94 556.6 175.34 512.1 136.37 478.26 118.49 450.26 117.42 438.3 123.07 425.77 134.8 411.99 148.84 398.53 165.18 383.2 181.3 365.8 192.71 348.4 199.53 329.76 201.39 310.42 197.18 291.38 189.96 272.27 181.6 254.08 162.21 221.79 157.87 201.32 172.1 200.21 198.28 206.65 236.47 218.7 277.66 217.58 299.01 205.59 319.95 187.39 339.91 164.76 359.92 139.99 378.81 117.99 396.21 103.4 413.61 97.99 428.69 104.41 441.48 120.75 454.33 143.03 465.04 168.61 473.84 193.54 492.94 229.15 509.06 243.39 528.48 245.44 559.86 239.24 601.09 243.81 646 261.86 675.66 279.11 698.36 324.63 685.3 350.35Q685.3 350.35 685.3 350.35" opacity="0.51"></path><path d="M653.81 370.9C623.86 401.35 587.63 437.31 557.8 477.61 542.49 518.62 536.23 562.24 532.76 599.97 530.36 628.7 482.6 582.32 439.86 575.9 409.41 605.7 376.02 636.65 340.13 648.95 302.73 640.05 261.65 606.72 220.93 562.89 184.5 517.18 158.47 475.99 151.46 441.18 158.97 410.19 182.86 380.44 212.81 350 229.68 305.43 202.45 248.41 202.63 251.05 214.66 254.98 238.69 256.02 268.79 242.61 301.54 208 335.08 164.71 365.52 134.91 395.96 132.22 420.44 162.76 440.44 207.65 463.11 247.53 486.59 274.09 514.46 288.14 550.01 290.31 590.66 294.2 629.15 305.95 659.33 318.41 669.69 340.45 653.81 370.89Q653.81 370.9 653.81 370.9" opacity="0.70"></path><path d="M622.36 410.25C597.13 436.34 565.3 467.89 535.97 501.68 508.88 548.51 485.08 590.77 469.25 568.88 457.01 551.46 437.8 540.1 411.71 544.33 385.61 568.78 355.1 595.5 322.11 611.12 289.31 614.01 255.42 596.83 225.19 566.77 200.59 530.1 186.51 491.71 187.67 456.83 197.87 423 219.13 392.66 244.36 366.56 261.82 330.78 247.14 298.18 242.63 299.48 245.36 295.34 257.83 284.84 277.38 262.83 299.03 228.08 324.29 190.79 350.39 166.34 376.48 162.1 400.95 184.03 424.51 220.58 450.19 258.91 478.44 291.96 509.91 316.06 544.63 330.25 580.31 341.33 610.41 354.54 631.93 365.98 637.15 384.15 622.36 410.25Q622.36 410.25 622.36 410.25" opacity="0.13"></path><path d="M590.81 443.03C570.18 464.77 543.46 488.15 516.74 510.21 485.61 537.47 446.49 545.43 428.48 524.41 416.63 513.22 400.13 507.75 378.38 512.89 356.63 532.24 331.7 553.88 305.87 569.6 281.01 579.42 257.44 575.27 238.99 559.7 225.26 537.4 220.42 509.75 226.5 481.87 237.27 453.09 255.18 426.64 275.81 404.9 292.93 375.66 291.54 346.31 288.18 336.96 287.21 324.03 292.89 305.12 304.87 279.36 317.87 247.7 335.85 217.25 357.6 197.9 379.35 192.75 402.8 207.03 427.49 234.16 453.19 266.28 481.45 299.02 510.92 327.49 540.44 350.56 568.19 369.84 589.2 387.6 602.92 403.22 604.13 421.28 590.81 443.03Q590.81 443.03 590.81 443.03" opacity="0.98"></path><path d="M559.31 447.82C524.64 482.62 479.23 505.59 442.35 504.07 416.72 497.32 389.53 480.88 354.74 481.39 302.04 529.3 264.04 494.61 307.31 439.99 323.81 405.2 329.37 381.85 333.79 358.23 332.69 318.07 349.15 264.74 383.94 229.39 418.73 228.88 465.27 273.53 511.97 325.88 553.17 373 575.81 413.03 559.31 447.82Q559.31 447.82 559.31 447.82" opacity="0.63"></path><path d="M527.81 421.6C502.55 447.69 466.69 458.1 433.72 452.92 405.26 450.51 377.59 445.67 351.5 449.9 310.9 484.55 359.14 409.01 374.12 363.71 378.01 326.35 391.42 285.35 417.52 260.9 443.62 256.67 477.45 282.67 507.77 319.28 532.49 358.65 542.63 395.5 527.81 421.6Q527.81 421.6 527.81 421.6" opacity="0.87"></path><path d="M496.31 381.35C461.64 416.14 404.91 417.89 370.12 418.4 335.32 453.76 335.64 461.19 370.31 426.4 386.81 391.6 408.39 327.76 443.19 292.4 477.98 291.89 512.81 346.55 496.31 381.35Q496.31 381.35 496.31 381.35" opacity="0.67"></path></g></svg>